<svg xmlns="http://www.w3.org/2000/svg" width="60" height="60" viewBox="0 0 60 60">
    <path fill="#FFF" fill-rule="evenodd" d="M59.927 28.056c-.517-10.752-7.031-20.967-16.881-25.44-10.63-4.826-23.522-2.81-32.382 4.69-8.418 7.123-12.37 18.611-9.97 29.386C3.076 47.39 11.237 56.066 21.864 58.906c12.566 3.36 24.042-2.581 31.1-12.923-6.401 8.542-16.052 14.185-26.994 12.292-10.773-1.859-19.62-10.064-22.082-20.74C1.263 26.165 6.513 14.251 16.655 8.486c10.519-5.977 25.087-3.77 32.09 6.48 1.744 2.556 2.97 5.5 3.608 8.522.546 2.564.315 5.13.694 7.69.332 2.252 2.325 5.389 4.925 3.701 2.25-1.46 2.102-4.501 1.956-6.824-.031-.644.082 1.292 0 0"/>
</svg>
